<svg id="Слой_1" data-name="Слой 1" xmlns="http://www.w3.org/2000/svg" viewBox="0 0 99.54 159"><defs><style>.cls-1{fill:none;stroke:#fff;stroke-miterlimit:10;stroke-width:3px;}</style></defs><title>mouse</title><path class="cls-1" d="M67.4,6.73S25.21,2.6,21.46,63.17A91.5,91.5,0,0,1,61.77,51.92l-.25-14.5s.06-5.75,5.88-5.75Z" transform="translate(-19.78 -5.17)"/><path class="cls-1" d="M71.71,6.73S113.9,2.6,117.65,63.17A91.5,91.5,0,0,0,77.33,51.92l.25-14.5s-.06-5.75-5.88-5.75Z" transform="translate(-19.78 -5.17)"/><path class="cls-1" d="M101,64.1c-7.44-2.51-15.65-3.1-23.38-3.74V76.13A5.61,5.61,0,0,1,72,81.73H67.46a6,6,0,0,1-5.94-5.94V60.36c-7.72.65-15.38,1.42-22.81,3.93L21.46,70.92s-.67,91.21,47.63,91.75c48.56.54,48.56-91.75,48.56-91.75Z" transform="translate(-19.78 -5.17)"/></svg>