<svg id="Слой_1" data-name="Слой 1" xmlns="http://www.w3.org/2000/svg" viewBox="0 0 33 33"><defs><style>.cls-1,.cls-2{fill:#fff;}.cls-2,.cls-3{stroke:#fff;stroke-miterlimit:10;}.cls-3{fill:none;}</style></defs><title>Small-logo</title><path class="cls-1" d="M22.88,19.25a12.55,12.55,0,0,0-1.79-1.38,15.6,15.6,0,0,0-5.46-2.28,12.93,12.93,0,0,0-3.93-.16,13.77,13.77,0,0,0-4.2,1.24,17.94,17.94,0,0,0-3.93,2.58A4.33,4.33,0,0,0,2.21,21c-.24.55.73.53,1.55.51,1.66,0,3.31,0,4.94,0l4.79.06,8.49.1,8.28.12v.07L22,22l-8.49.1-4.79.06c-1.63,0-3.29,0-4.94,0a6.72,6.72,0,0,1-1.31-.06,1.24,1.24,0,0,1-.73-.4,1,1,0,0,1-.14-.87,3.43,3.43,0,0,1,.67-1.18c.13-.17.28-.33.42-.48A3.29,3.29,0,0,1,2.93,19l.24-.19a18.5,18.5,0,0,1,4.09-2.6A13.61,13.61,0,0,1,11.65,15a13.32,13.32,0,0,1,4.05.26,15.31,15.31,0,0,1,5.48,2.5,12.65,12.65,0,0,1,1.76,1.46Z" transform="translate(0.5 0.5)"/><path class="cls-1" d="M14.27,20.69S14.13,19.6,14,18c0-.82-.08-1.77-.08-2.79L14,12c.09-4.35.23-8.7.23-8.7h.07s.15,4.35.23,8.7l.08,3.19c0,1,0,2-.08,2.79-.09,1.63-.23,2.72-.23,2.72Z" transform="translate(0.5 0.5)"/><path class="cls-1" d="M19.26,29.18,19,17.62a15.24,15.24,0,0,0-.11-2.08.7.7,0,0,0-.14-.32s0,0-.12,0a3.59,3.59,0,0,0-.68.59c-.94.94-1.81,1.86-2.56,2.65C13.92,20,12.87,21,12.87,21l-.05,0s.83-1.19,2.2-2.88c.7-.83,1.5-1.81,2.47-2.79a3.68,3.68,0,0,1,.91-.71.87.87,0,0,1,.41-.08.7.7,0,0,1,.44.21,1.28,1.28,0,0,1,.29.64,5,5,0,0,1,.05,1.14l0,1.08-.23,11.56Z" transform="translate(0.5 0.5)"/><path class="cls-2" d="M5.17,28.74a2.6,2.6,0,0,1-1.07.19,1.89,1.89,0,0,1-2-2,2,2,0,0,1,2.11-2.12,2.16,2.16,0,0,1,1,.18L5,25.37a1.9,1.9,0,0,0-.82-.17,1.5,1.5,0,0,0-1.58,1.67,1.47,1.47,0,0,0,1.55,1.63,2.08,2.08,0,0,0,.85-.17Z" transform="translate(0.5 0.5)"/><path class="cls-2" d="M6.35,24.83v1.69h2V24.83h.53v4H8.3V27h-2v1.89H5.82v-4Z" transform="translate(0.5 0.5)"/><path class="cls-2" d="M10.26,24.83v2.39c0,.91.4,1.29.94,1.29s1-.4,1-1.29V24.83h.53v2.36c0,1.24-.65,1.75-1.53,1.75s-1.45-.47-1.45-1.73V24.83Z" transform="translate(0.5 0.5)"/><path class="cls-2" d="M14.39,25.27H13.16v-.44h3v.44H14.91v3.6h-.53Z" transform="translate(0.5 0.5)"/><path class="cls-2" d="M16.32,28.56l2.24-3.28v0H16.52v-.44h2.73v.32L17,28.41v0h2.26v.44h-3Z" transform="translate(0.5 0.5)"/><path class="cls-2" d="M19.92,24.88a6.05,6.05,0,0,1,1-.08,1.66,1.66,0,0,1,1.13.33,1.09,1.09,0,0,1,.35.85,1.19,1.19,0,0,1-.31.86,1.68,1.68,0,0,1-1.24.44,1.78,1.78,0,0,1-.42,0v1.62h-.52Zm.52,1.95a1.74,1.74,0,0,0,.43,0c.63,0,1-.31,1-.86s-.38-.79-1-.79a2.22,2.22,0,0,0-.49,0Z" transform="translate(0.5 0.5)"/><path class="cls-2" d="M23.26,27.6l-.42,1.27H22.3l1.37-4h.63l1.38,4h-.56l-.43-1.27Zm1.33-.41L24.19,26c-.09-.26-.15-.5-.21-.74h0c-.06.24-.13.49-.2.73l-.4,1.17Z" transform="translate(0.5 0.5)"/><path class="cls-2" d="M26.8,24.83v1.69h2V24.83h.53v4h-.53V27h-2v1.89h-.52v-4Z" transform="translate(0.5 0.5)"/><rect class="cls-3" x="0.5" y="0.5" width="32" height="32"/></svg>