<svg id="Layer_1" data-name="Layer 1" xmlns="http://www.w3.org/2000/svg" viewBox="0 0 340.27 113.65"><defs><style>.cls-1{fill:#ecf0f1;}</style></defs><title>Logo</title><path class="cls-1" d="M211.4,337.61a45.53,45.53,0,0,0-4-3,73.43,73.43,0,0,0-12.23-6.77,66.52,66.52,0,0,0-20.86-5.4,59.5,59.5,0,0,0-13.21.34A65,65,0,0,0,147,326.47a75,75,0,0,0-14.1,7.39c-1.14.77-2.33,1.5-3.43,2.38l-1.69,1.27-0.85.64-0.43.32-0.11.08,0,0-0.18.17a27.44,27.44,0,0,0-2.81,3,13.56,13.56,0,0,0-1.12,1.65,4.73,4.73,0,0,0-.61,1.57,0.72,0.72,0,0,0,.2.77,3.06,3.06,0,0,0,1.33.54,10.85,10.85,0,0,0,2,.18c0.69,0,1.5,0,2.25,0l9.27,0,19.14,0,81.43,0.36L459,347.85v0.3L237.24,349.2l-81.43.36-19.14,0-9.27,0c-0.78,0-1.49,0-2.32,0a13.67,13.67,0,0,1-2.53-.27,5.72,5.72,0,0,1-2.72-1.31,3.47,3.47,0,0,1-1-1.6,4.06,4.06,0,0,1-.07-1.72,7.46,7.46,0,0,1,1-2.55,16.33,16.33,0,0,1,1.38-2,30.15,30.15,0,0,1,3.16-3.33l0.22-.2,0.17-.14,0.11-.08,0.44-.32,0.88-.64,1.76-1.28c1.15-.88,2.38-1.62,3.57-2.4a77.47,77.47,0,0,1,14.68-7.41,62,62,0,0,1,28.37-3.5,65,65,0,0,1,11.71,2.42,70,70,0,0,1,9.42,3.72,71.34,71.34,0,0,1,12.1,7.31,45.91,45.91,0,0,1,3.85,3.19Z" transform="translate(-118.73 -275.67)"/><path class="cls-1" d="M216.52,344.67s-0.67-4.31-1.05-10.78c-0.1-1.62-.19-3.37-0.25-5.22s-0.11-3.81-.11-5.83,0.07-4.11.16-6.23l0.21-6.44c0.23-8.62.42-17.25,0.67-23.72l0.38-10.78h0.3l0.38,10.78c0.24,6.47.43,15.09,0.67,23.72l0.21,6.44c0.08,2.12.14,4.21,0.16,6.23s0,4-.11,5.83-0.15,3.6-.25,5.22c-0.38,6.47-1.05,10.78-1.05,10.78h-0.3Z" transform="translate(-118.73 -275.67)"/><path class="cls-1" d="M325.35,389.32c-0.23-2.87-.35-5.75-0.53-8.62s-0.27-5.75-.37-8.62c-0.22-5.75-.34-11.5-0.44-17.25,0-2.87-.07-5.75-0.06-8.62l0.08-8.62,0.28-17.25,0-1.57,1.47,0.4c1.94,0.53,3.83,1.12,5.72,1.74s3.76,1.29,5.62,2a78.56,78.56,0,0,1,10.87,5,31.42,31.42,0,0,1,5,3.45,15.23,15.23,0,0,1,2.15,2.24l0.48,0.66,0.39,0.63a11.85,11.85,0,0,1,.73,1.4,5.27,5.27,0,0,1,.48,3.31,3.23,3.23,0,0,1-.93,1.57,4.54,4.54,0,0,1-1.46.89,10.11,10.11,0,0,1-3.09.59,18,18,0,0,1-3.06-.1h0.07l-23.25-.4v-0.3l23.25-.4h0.07a12.7,12.7,0,0,0,5.53-.56,2.4,2.4,0,0,0,1.57-1.61,4,4,0,0,0-.47-2.42,10.26,10.26,0,0,0-.66-1.2l-0.41-.62-0.41-.52a13.72,13.72,0,0,0-2-2,29.81,29.81,0,0,0-4.82-3.13,76.73,76.73,0,0,0-10.73-4.59q-2.77-1-5.58-1.81c-1.87-.56-3.77-1.09-5.64-1.55l1.49-1.16L327,337.57l0.08,8.62c0,2.88,0,5.75-.06,8.63-0.1,5.75-.23,11.5-0.44,17.25-0.1,2.88-.23,5.75-0.37,8.63s-0.3,5.75-.53,8.62h-0.3Z" transform="translate(-118.73 -275.67)"/><path class="cls-1" d="M391.83,354.82c-0.23-1.44-.35-2.87-0.53-4.31s-0.27-2.87-.37-4.31c-0.22-2.87-.34-5.75-0.44-8.62,0-1.44-.07-2.87-0.06-4.31s0.05-2.87.08-4.31l0.28-8.62,1.49,1.16c-1.87.46-3.77,1-5.64,1.55s-3.74,1.16-5.58,1.81a76.73,76.73,0,0,0-10.73,4.59,29.82,29.82,0,0,0-4.82,3.13,13.72,13.72,0,0,0-2,2l-0.41.52-0.41.62a10.27,10.27,0,0,0-.66,1.2,4,4,0,0,0-.47,2.42,2.4,2.4,0,0,0,1.57,1.61,12.7,12.7,0,0,0,5.53.56h0.07l23.25,0.4v0.3l-23.25.4h0.07a18,18,0,0,1-3.06.1,10.11,10.11,0,0,1-3.09-.59,4.54,4.54,0,0,1-1.46-.89,3.23,3.23,0,0,1-.93-1.57,5.27,5.27,0,0,1,.48-3.31,11.84,11.84,0,0,1,.73-1.4l0.39-.63,0.48-.66a15.23,15.23,0,0,1,2.15-2.24,31.42,31.42,0,0,1,5-3.45,78.56,78.56,0,0,1,10.87-5q2.79-1.06,5.62-2c1.89-.62,3.78-1.21,5.72-1.74l1.44-.4,0.05,1.56,0.28,8.63c0,1.44.06,2.87,0.08,4.31s0,2.88-.06,4.31c-0.1,2.88-.23,5.75-0.44,8.62-0.1,1.44-.23,2.88-0.37,4.31s-0.3,2.87-.53,4.31h-0.3Z" transform="translate(-118.73 -275.67)"/><path class="cls-1" d="M266.85,344.67a10,10,0,0,1-.39-1,21.08,21.08,0,0,1-.67-2.76,22.94,22.94,0,0,1-.36-3.9c0-1.43.28-2.95,0.36-4.47s0.19-3,.32-4.47,0.24-2.76.35-3.9c0.21-2.28.38-3.8,0.38-3.8h0.3s0.18,1.52.38,3.8c0.11,1.14.24,2.47,0.35,3.9s0.21,2.95.32,4.47,0.34,3,.36,4.47a22.94,22.94,0,0,1-.36,3.9,21.08,21.08,0,0,1-.67,2.76,10,10,0,0,1-.39,1h-0.3Z" transform="translate(-118.73 -275.67)"/><path class="cls-1" d="M238.18,378.33l-0.37-14.59c-0.11-4.38-.25-9.48-0.34-15l-0.33-17.15-0.1-4.37v-0.55l0-.49c0-.33-0.05-0.65-0.1-1a6,6,0,0,0-.47-1.68,1.39,1.39,0,0,0-.31-0.44,0.13,0.13,0,0,0-.13,0,2.29,2.29,0,0,0-1,.43l-0.31.22-0.41.33c-0.26.22-.56,0.44-0.79,0.66-0.48.45-1,.85-1.45,1.33-2,1.82-3.87,3.66-5.69,5.36l-5.12,4.85c-1.59,1.51-3.06,2.87-4.37,4.08s-2.46,2.25-3.42,3.1c-1.9,1.71-3,2.66-3,2.66l-0.22-.2s0.87-1.19,2.48-3.18c0.79-1,1.78-2.22,2.92-3.58s2.45-2.9,3.91-4.53,3.05-3.41,4.79-5.23,3.59-3.73,5.64-5.62c0.5-.46,1.09-0.95,1.64-1.42,0.28-.25.55-0.44,0.83-0.66l0.42-.32c0.24-.18.37-0.25,0.56-0.38a6.19,6.19,0,0,1,1.26-.61,3.61,3.61,0,0,1,1.74-.18,3.08,3.08,0,0,1,1.74.9,4.26,4.26,0,0,1,.86,1.34,8.63,8.63,0,0,1,.57,2.5c0,0.4.06,0.8,0.07,1.19v0.6l0,0.54-0.1,4.37-0.33,17.15c-0.09,5.47-.23,10.58-0.34,15l-0.37,14.59h-0.3Z" transform="translate(-118.73 -275.67)"/><path class="cls-1" d="M403.18,344.67s-0.67-4.31-1.05-10.78c-0.1-1.62-.19-3.37-0.25-5.22s-0.11-3.81-.11-5.83,0.07-4.11.16-6.23l0.21-6.44c0.23-8.62.42-17.25,0.67-23.72l0.38-10.78h0.3l0.38,10.78c0.24,6.47.43,15.09,0.67,23.72l0.21,6.44c0.08,2.12.14,4.21,0.16,6.23s0,4-.11,5.83-0.15,3.6-.25,5.22c-0.38,6.47-1.05,10.78-1.05,10.78h-0.3Z" transform="translate(-118.73 -275.67)"/><path class="cls-1" d="M424.85,378.33l-0.37-14.59c-0.11-4.38-.25-9.48-0.34-15l-0.33-17.15-0.1-4.37v-0.55l0-.49c0-.33-0.05-0.65-0.1-1a6,6,0,0,0-.47-1.68,1.39,1.39,0,0,0-.31-0.44,0.13,0.13,0,0,0-.13,0,2.29,2.29,0,0,0-1,.43l-0.31.22-0.41.33c-0.26.22-.56,0.44-0.79,0.66-0.48.45-1,.85-1.45,1.33-2,1.82-3.87,3.66-5.69,5.36l-5.12,4.85c-1.59,1.51-3.06,2.87-4.37,4.08s-2.46,2.25-3.42,3.1c-1.9,1.71-3,2.66-3,2.66l-0.22-.2s0.87-1.19,2.48-3.18c0.79-1,1.78-2.22,2.92-3.58s2.45-2.9,3.91-4.53,3.05-3.41,4.79-5.23,3.59-3.73,5.64-5.62c0.5-.46,1.09-0.95,1.64-1.42,0.28-.25.55-0.44,0.83-0.66l0.42-.32c0.24-.18.37-0.25,0.56-0.38a6.19,6.19,0,0,1,1.26-.61,3.61,3.61,0,0,1,1.74-.18,3.08,3.08,0,0,1,1.74.9,4.26,4.26,0,0,1,.86,1.34,8.63,8.63,0,0,1,.57,2.5c0,0.4.06,0.8,0.07,1.19v0.6l0,0.54-0.1,4.37-0.33,17.15c-0.09,5.47-.23,10.58-0.34,15l-0.37,14.59h-0.3Z" transform="translate(-118.73 -275.67)"/><path class="cls-1" d="M244.94,320.32c0.2,3.67.34,7.35,0.5,11s0.26,7.35.39,11v0.1a1.56,1.56,0,0,0,.15.59,0.74,0.74,0,0,0,.33.33,2.5,2.5,0,0,0,1.48,0,6,6,0,0,0,1.81-.65,16.9,16.9,0,0,0,1.75-1.16c1.18-.88,2.32-1.86,3.47-2.84l3.46-3,3.52-2.91c1.17-1,2.37-1.93,3.55-2.9,2.4-1.91,4.8-3.82,7.34-5.6l0.21,0.21a86.66,86.66,0,0,1-6,7.06c-1.07,1.11-2.12,2.24-3.23,3.3s-2.21,2.15-3.36,3.18a59.05,59.05,0,0,1-7.43,5.68,20,20,0,0,1-2.17,1.23,8.11,8.11,0,0,1-2.56.71,4.56,4.56,0,0,1-3-.49,3,3,0,0,1-1.16-1.37,3.5,3.5,0,0,1-.25-1.66v0.1c0.13-3.67.22-7.35,0.39-11s0.3-7.35.5-11h0.3Z" transform="translate(-118.73 -275.67)"/><path class="cls-1" d="M275.93,275.67c0.16,3.56.27,7.11,0.39,10.67s0.22,7.11.3,10.67l0.26,10.67,0.19,10.67L277.22,329c0,3.56.08,7.11,0.09,10.67l0,10.67L277.29,361v0.16a5.47,5.47,0,0,0,.13,1.57,3.89,3.89,0,0,0,.61,1.38,3.61,3.61,0,0,0,2.58,1.39,8.58,8.58,0,0,0,.88.06h1l2.1,0,4.2,0,16.81,0.18,33.62,0.29,67.24,0.73v0.3l-67.24.73-33.62.29-16.81.18-4.2,0-2.1,0h-1.06a11.4,11.4,0,0,1-1.22-.07,7.48,7.48,0,0,1-2.49-.73,5.93,5.93,0,0,1-2.11-1.77,6.77,6.77,0,0,1-1.12-2.42,8.22,8.22,0,0,1-.23-2.6V361l-0.05-10.67,0-10.67c0-3.56,0-7.11.09-10.67l0.14-10.67,0.19-10.67L274.94,297c0.08-3.56.17-7.11,0.3-10.67s0.23-7.11.39-10.67h0.3Z" transform="translate(-118.73 -275.67)"/><path class="cls-1" d="M254.5,314l7.05-.22,18.6-.44,12.42-.24,13.87-.21,7.32-.09,3.73,0h0.94c0.32,0,.6,0,1,0a3.05,3.05,0,0,1,1.54.44,1.83,1.83,0,0,1,.55.58,1.72,1.72,0,0,1,.24.86,2.23,2.23,0,0,1-.29,1.08,7.16,7.16,0,0,1-1.55,1.77c-0.52.46-1,.86-1.56,1.26-1.05.79-2.12,1.52-3.2,2.24-2.15,1.44-4.36,2.76-6.57,4.09-4.42,2.64-8.87,5.2-13.23,7.71C293.2,334,291,335.3,289,336.59a57.93,57.93,0,0,0-5.91,4,6,6,0,0,0-1,1c0,0.05,0,.08,0,0a0.89,0.89,0,0,0-.18-0.7,0.44,0.44,0,0,0-.24-0.19,0.94,0.94,0,0,0,.19,0c0.35,0,1,0,1.61,0l1.75,0,6.78,0.12c4.41,0.07,8.58.16,12.42,0.26,7.69,0.16,14.11.45,18.6,0.58,2.24,0.07,4,.16,5.21.21L330,342l-1.84.08c-1.2,0-3,.15-5.21.21-4.49.13-10.9,0.41-18.6,0.58-3.85.1-8,.19-12.42,0.26l-6.78.12-1.75,0c-0.61,0-1.09,0-1.92,0a3.52,3.52,0,0,1-.68-0.14,2.06,2.06,0,0,1-1-.65,1.7,1.7,0,0,1-.36-0.81,1.86,1.86,0,0,1,0-.73,2.66,2.66,0,0,1,.35-0.82,8,8,0,0,1,1.48-1.6,56.79,56.79,0,0,1,6.13-4.36c2.11-1.33,4.27-2.62,6.45-3.91,4.35-2.59,8.82-5.1,13.24-7.68,2.21-1.29,4.39-2.6,6.54-3.93,1.07-.67,2.12-1.35,3.12-2.06,0.5-.36,1-0.72,1.43-1.09a5.49,5.49,0,0,0,1-1s0,0,0,.19a0.86,0.86,0,0,0,.34.65c0.18,0.09-.07,0-0.26,0s-0.55,0-.86,0h-0.94l-3.73,0-7.32-.09-13.87-.21-12.42-.24-18.6-.44Z" transform="translate(-118.73 -275.67)"/></svg>